# xmcd
#
# Track frame offsets: 
#        150
#        18517
#        33792
#        46947
#        63357
#        79467
#        93202
#        107750
#        124357
#        144345
#        152052
#        173980
#        191310
#        201787
#        225820
#
# Disc length: 3386 seconds
#
# Revision: 4
# Processed by: cddbd v1.5.2PL0 Copyright (c) Steve Scherf et al.
# Submitted via: ExactAudioCopy v0.99pb4
#
DISCID=b90d380f
DTITLE=Various Artist - The Best of Clint Eastwood
DYEAR=1993
DGENRE=Soundtrack
TTITLE0=Die Zweite Chance (In the Line of Fire) (Main Theme)
TTITLE1=Agenten sterben einsam (Where Eagles dare)
TTITLE2=Zwei glorreiche Halunken (The Good, the Bad and the Ugly)
TTITLE3=Für eine Handvoll Dollar (A fistful of dollars)
TTITLE4=Für ein paar Dollar mehr (For a few dollars more)
TTITLE5=Zwei glorreiche Halunken (The Good, the Bad and the Ugly) Ecst
TTITLE5=asy of Gold
TTITLE6=Sadistico (Play misty for me)
TTITLE7=Hängt ihn höher (Hang'em high)
TTITLE8=Der Texaner (The outlaw Josey Wales) The war is over
TTITLE9=Tausend Meilen Staub (Rawhide)
TTITLE10=Dirty Harry (Dirty Harry)
TTITLE11=Dirty Harry kommt zurück (Sudden impact)
TTITLE12=Calahan (Magnum Force)
TTITLE13=Ein Fressen für die Geier (Two mules for sister Sara)
TTITLE14=Erbarmungslos (Unforgiven) (Claudia's Theme)
EXTD=
EXTT0=
EXTT1=
EXTT2=
EXTT3=
EXTT4=
EXTT5=
EXTT6=
EXTT7=
EXTT8=
EXTT9=
EXTT10=
EXTT11=
EXTT12=
EXTT13=
EXTT14=
PLAYORDER=
